<svg xmlns="http://www.w3.org/2000/svg" width="512" height="512" viewBox="0 0 512 512" role="img" aria-label="Block Puzzle icon">
  <defs>
    <linearGradient id="bg" x1="0" x2="1" y1="0" y2="1">
      <stop offset="0%" stop-color="#0c2f3f" />
      <stop offset="100%" stop-color="#04141f" />
    </linearGradient>
  </defs>
  <rect width="512" height="512" rx="108" fill="url(#bg)" />
  <g transform="translate(96 96)">
    <rect x="0" y="0" width="64" height="64" rx="10" fill="#42f5f2"/>
    <rect x="64" y="0" width="64" height="64" rx="10" fill="#42f5f2"/>
    <rect x="128" y="0" width="64" height="64" rx="10" fill="#42f5f2"/>
    <rect x="192" y="0" width="64" height="64" rx="10" fill="#42f5f2"/>

    <rect x="0" y="64" width="64" height="64" rx="10" fill="#7da5ff"/>
    <rect x="64" y="64" width="64" height="64" rx="10" fill="#7da5ff"/>
    <rect x="128" y="64" width="64" height="64" rx="10" fill="#7da5ff"/>

    <rect x="128" y="128" width="64" height="64" rx="10" fill="#ff8f3c"/>
    <rect x="192" y="128" width="64" height="64" rx="10" fill="#ff8f3c"/>
    <rect x="256" y="128" width="64" height="64" rx="10" fill="#ff8f3c"/>

    <rect x="64" y="192" width="64" height="64" rx="10" fill="#f58bb7"/>
    <rect x="128" y="192" width="64" height="64" rx="10" fill="#f58bb7"/>
    <rect x="192" y="192" width="64" height="64" rx="10" fill="#f58bb7"/>
  </g>
</svg>
